HIERARCHY
ROOT SpineBase
{
  OFFSET 0.000000 0.000000 0.000000
  CHANNELS 6 Xposition Yposition Zposition Zrotation Xrotation Yrotation
  JOINT SpineMid
  {
    OFFSET 0.000000 28.583157 0.000000
    CHANNELS 3 Zrotation Xrotation Yrotation
    JOINT SpineShoulder
    {
      OFFSET -0.032588 21.250065 -0.744981
      CHANNELS 3 Zrotation Xrotation Yrotation
      JOINT Neck
      {
        OFFSET -0.028658 7.043049 -0.555151
        CHANNELS 3 Zrotation Xrotation Yrotation
        JOINT Head
        {
          OFFSET -2.457845 12.228408 -0.670066
          CHANNELS 3 Zrotation Xrotation Yrotation
          End Site
          {
            OFFSET 0 0 0
          }
        }
      }
      JOINT ShoulderLeft
      {
        OFFSET -16.836927 -1.848970 5.088378
        CHANNELS 3 Zrotation Xrotation Yrotation
        JOINT ElbowLeft
        {
          OFFSET -3.575519 -24.945222 2.315296
          CHANNELS 3 Zrotation Xrotation Yrotation
          JOINT WristLeft
          {
            OFFSET -2.178875 -21.228546 -4.424898
            CHANNELS 3 Zrotation Xrotation Yrotation
            JOINT HandLeft
            {
              OFFSET 0.626522 -6.609919 -1.369786
              CHANNELS 3 Zrotation Xrotation Yrotation
              JOINT HandTipLeft
              {
                OFFSET 0.343418 -6.589590 -1.564203
                CHANNELS 3 Zrotation Xrotation Yrotation
                End Site
                {
                  OFFSET 0 0 0
                }
              }
              JOINT ThumbLeft
              {
                OFFSET 3.389145 0.477219 -2.506547
                CHANNELS 3 Zrotation Xrotation Yrotation
                End Site
                {
                  OFFSET 0 0 0
                }
              }
            }
          }
        }
      }
      JOINT ShoulderRight
      {
        OFFSET 15.370038 -2.010229 -4.648980
        CHANNELS 3 Zrotation Xrotation Yrotation
        JOINT ElbowRight
        {
          OFFSET 5.973839 -24.753113 -1.930177
          CHANNELS 3 Zrotation Xrotation Yrotation
          JOINT WristRight
          {
            OFFSET 2.478910 -22.724695 -5.618345
            CHANNELS 3 Zrotation Xrotation Yrotation
            JOINT HandRight
            {
              OFFSET -1.104092 -6.366896 -2.494054
              CHANNELS 3 Zrotation Xrotation Yrotation
              JOINT HandTipRight
              {
                OFFSET 0.832209 -5.684583 -2.231810
                CHANNELS 3 Zrotation Xrotation Yrotation
                End Site
                {
                  OFFSET 0 0 0
                }
              }
              JOINT ThumbRight
              {
                OFFSET 2.500264 1.950574 -2.032293
                CHANNELS 3 Zrotation Xrotation Yrotation
                End Site
                {
                  OFFSET 0 0 0
                }
              }
            }
          }
        }
      }
    }
  }
  JOINT HipLeft
  {
    OFFSET -5.792360 0.188334 -1.833907
    CHANNELS 3 Zrotation Xrotation Yrotation
    JOINT KneeLeft
    {
      OFFSET -6.245904 -27.806479 4.336082
      CHANNELS 3 Zrotation Xrotation Yrotation
      JOINT AnkleLeft
      {
        OFFSET 1.307384 -39.577027 9.762066
        CHANNELS 3 Zrotation Xrotation Yrotation
        JOINT FootLeft
        {
          OFFSET -2.937285 -3.158507 -13.833814
          CHANNELS 3 Zrotation Xrotation Yrotation
          End Site
          {
            OFFSET 0 0 0
          }
        }
      }
    }
  }
  JOINT HipRight
  {
    OFFSET 5.323432 0.989007 -4.660407
    CHANNELS 3 Zrotation Xrotation Yrotation
    JOINT KneeRight
    {
      OFFSET 7.522836 -29.155401 2.457221
      CHANNELS 3 Zrotation Xrotation Yrotation
      JOINT AnkleRight
      {
        OFFSET 4.632769 -36.360731 8.701676
        CHANNELS 3 Zrotation Xrotation Yrotation
        JOINT FootRight
        {
          OFFSET -6.358422 -6.163777 -2.393684
          CHANNELS 3 Zrotation Xrotation Yrotation
          End Site
          {
            OFFSET 0 0 0
          }
        }
      }
    }
  }
}
MOTION
Frames: 14
Frame Time: 0.033333
25.807530 82.601982 367.367817 9.527933 -5.835928 24.056798 -0.198066 1.114926 -23.310544 0.181690 0.827125 0.319200 -3.649725 -12.070894 -2.927235 0.000000 0.000000 0.000000 -151.368261 57.167987 88.845817 36.770369 53.621427 72.010905 42.646186 17.837133 60.372873 -25.916991 4.916363 -18.413278 0.000000 0.000000 0.000000 0.000000 0.000000 0.000000 -144.914763 38.502623 139.199812 -46.758962 22.954110 -79.602839 -2.942987 -26.905190 -27.592045 12.241320 -8.593833 -20.789517 0.000000 0.000000 0.000000 0.000000 0.000000 0.000000 1.033594 9.492727 -23.962792 -8.284956 -4.373752 -1.043328 9.249161 -29.011035 7.913038 0.000000 0.000000 0.000000 -5.493795 10.909797 -22.694820 0.690335 -3.183568 -0.434016 13.257387 31.249809 -40.529176 0.000000 0.000000 0.000000
25.373222 82.884801 367.160070 9.492598 -6.945500 25.094475 -0.419099 1.304332 -24.249785 -0.051440 0.815955 0.298339 -1.359522 -10.583085 -2.671615 0.000000 0.000000 0.000000 -148.803095 55.634418 85.527631 33.615563 56.061610 73.817365 44.343358 13.125690 67.405973 -11.772276 13.025247 -27.256857 0.000000 0.000000 0.000000 0.000000 0.000000 0.000000 -145.166462 37.077987 140.323419 -49.276629 26.496775 -85.892193 10.704218 -23.895329 -16.665136 14.674431 -13.807310 -24.640894 0.000000 0.000000 0.000000 0.000000 0.000000 0.000000 2.092552 10.613787 -25.147442 -8.283999 -4.869836 -0.974320 10.560249 -33.062995 9.401716 0.000000 0.000000 0.000000 -4.839793 11.860998 -23.687441 0.874233 -3.203923 -0.363299 12.914612 31.055875 -40.108209 0.000000 0.000000 0.000000
25.034859 83.020819 366.936414 9.405242 -8.109559 25.786816 -0.348745 1.457442 -24.859020 -0.327595 0.724715 0.294928 -0.943986 -6.900961 -2.356697 0.000000 0.000000 0.000000 -146.703868 53.726283 82.166285 24.021465 63.405183 83.679194 32.535900 5.456224 62.026409 -2.351061 7.821324 -20.353468 0.000000 0.000000 0.000000 0.000000 0.000000 0.000000 -145.726614 35.823595 141.906358 -51.593164 30.598276 -92.639474 19.402547 -21.263626 -10.862788 6.841876 -16.260105 -30.449663 0.000000 0.000000 0.000000 0.000000 0.000000 0.000000 3.126588 11.753496 -26.011571 -8.325549 -5.184140 -0.922985 8.993375 -29.285313 9.116097 0.000000 0.000000 0.000000 -4.096023 12.860891 -24.338163 1.035888 -3.206583 -0.302422 12.415855 30.706132 -39.486501 0.000000 0.000000 0.000000
24.764823 83.085954 366.671785 8.894020 -7.690161 26.105494 -0.671691 1.393689 -25.234406 -0.657503 0.516588 0.273345 2.717285 -5.592513 -2.013698 0.000000 0.000000 0.000000 -144.006693 52.474955 78.615298 15.493451 67.126862 93.103020 29.349624 -1.357135 63.067348 -5.530813 13.781512 -26.712536 0.000000 0.000000 0.000000 0.000000 0.000000 0.000000 -145.740115 35.962217 144.444339 -51.526857 33.629699 -95.281287 24.817718 -16.786848 -5.468770 0.194849 -18.905081 -31.244139 0.000000 0.000000 0.000000 0.000000 0.000000 0.000000 3.623936 11.044015 -26.364685 -8.353509 -5.196848 -0.910945 6.070545 -21.132773 7.471300 0.000000 0.000000 0.000000 -3.884804 11.854321 -24.858061 1.030989 -2.739430 -0.187376 12.338215 30.874182 -39.619615 0.000000 0.000000 0.000000
24.618833 83.147067 366.324237 8.146681 -6.716343 26.051316 -0.580613 1.309663 -25.330408 -0.617840 0.480953 0.249220 2.778985 -7.032557 -1.997787 0.000000 0.000000 0.000000 -141.902989 52.140124 75.373267 2.791532 70.171891 106.771878 17.303238 -15.183441 54.522535 3.681817 8.365612 -15.199663 0.000000 0.000000 0.000000 0.000000 0.000000 0.000000 -145.357693 36.161266 144.751459 -50.786522 35.398183 -96.939505 32.844364 -13.271249 -1.697753 -10.631185 -21.843609 -34.414344 0.000000 0.000000 0.000000 0.000000 0.000000 0.000000 3.644848 9.347922 -26.126186 -8.146130 -4.259912 -0.903440 2.426133 -9.703188 5.956221 0.000000 0.000000 0.000000 -4.447434 9.569622 -25.200018 1.343395 -1.440681 0.154138 12.264429 31.313762 -39.971441 0.000000 0.000000 0.000000
24.407355 83.403038 365.950542 6.975423 -5.004207 25.790440 -0.348811 1.200570 -25.293381 -0.360479 0.463661 0.220083 0.431575 -10.322918 -2.330593 0.000000 0.000000 0.000000 -139.584744 52.636053 72.204299 -12.515065 71.867726 123.252136 11.604905 -20.423648 51.599326 11.454185 4.269139 -7.423363 0.000000 0.000000 0.000000 0.000000 0.000000 0.000000 -144.316212 37.142006 144.036100 -49.434320 35.823068 -96.073348 29.768074 -18.992092 -7.169108 -6.567338 -17.227479 -28.639265 0.000000 0.000000 0.000000 0.000000 0.000000 0.000000 3.881967 6.920469 -25.709733 -8.062109 -3.937475 -0.913950 0.953544 -4.686353 5.113287 0.000000 0.000000 0.000000 -4.145937 7.515627 -25.212829 1.513255 -1.465192 0.193905 12.061348 31.983296 -40.593413 0.000000 0.000000 0.000000
24.260286 83.679684 365.601961 6.225028 -4.578047 25.437415 -0.140279 1.222853 -25.028054 -0.169826 0.388276 0.209144 -1.051650 -12.543380 -2.801309 0.000000 0.000000 0.000000 -139.326976 52.424172 71.474000 -25.588690 71.648151 136.956199 5.983497 -25.255014 48.137239 11.378870 -0.572502 -1.083514 0.000000 0.000000 0.000000 0.000000 0.000000 0.000000 -143.976318 37.195535 144.031465 -46.765547 34.963574 -91.554797 19.932365 -32.323751 -24.014755 -6.643672 -7.947416 -19.119783 0.000000 0.000000 0.000000 0.000000 0.000000 0.000000 4.307758 5.826028 -25.223883 -8.022751 -3.674206 -0.944932 0.597395 -3.677909 4.657287 0.000000 0.000000 0.000000 -3.686156 6.789909 -24.969594 1.534484 -1.550226 0.189543 12.045504 32.292741 -40.822491 0.000000 0.000000 0.000000
24.122160 83.941535 365.301439 5.700481 -5.180528 25.026741 0.105664 1.301677 -24.632899 -0.100454 0.352068 0.199679 -4.421478 -15.109415 -3.876352 0.000000 0.000000 0.000000 -139.808503 51.710902 71.822710 -43.840470 70.462244 156.834127 -1.724152 -28.773398 42.805340 12.450926 -3.713963 3.279659 0.000000 0.000000 0.000000 0.000000 0.000000 0.000000 -144.080464 36.478125 144.505292 -45.344816 33.190247 -88.953713 3.646984 -41.882733 -45.853844 8.169236 4.159183 -13.721510 0.000000 0.000000 0.000000 0.000000 0.000000 0.000000 4.980987 5.792637 -24.749233 -7.916078 -3.512381 -0.957266 1.038299 -6.176970 4.590879 0.000000 0.000000 0.000000 -3.427545 6.308214 -24.766539 1.066705 -0.654500 0.274686 12.468573 32.239710 -40.584943 0.000000 0.000000 0.000000
24.029456 84.162614 365.104604 5.113777 -5.382214 24.669729 0.048521 1.521323 -24.312787 0.066571 0.204891 0.182429 -5.996017 -15.746871 -4.357715 0.000000 0.000000 0.000000 -139.404802 51.411612 71.778779 -57.681091 68.256718 172.494999 -12.642174 -33.036704 33.462523 17.821223 -5.848585 8.980759 0.000000 0.000000 0.000000 0.000000 0.000000 0.000000 -143.542256 35.558437 144.002962 -44.519960 32.236785 -88.279898 3.353346 -43.732313 -48.436251 11.308421 2.394089 -19.280370 0.000000 0.000000 0.000000 0.000000 0.000000 0.000000 5.567624 5.395344 -24.315189 -7.894715 -3.362113 -0.989665 3.711484 -16.848192 5.180252 0.000000 0.000000 0.000000 -2.898132 6.145475 -24.486234 0.797759 -0.793424 0.204284 12.814545 32.544815 -40.676835 0.000000 0.000000 0.000000
23.958878 84.310578 365.019961 4.812496 -5.578818 24.425611 0.021414 1.409074 -24.076264 0.084008 0.182776 0.171376 -8.426682 -15.057723 -4.674360 0.000000 0.000000 0.000000 -139.480262 51.006329 71.970622 -65.203697 66.225712 -178.328354 -22.072346 -35.460901 24.865321 24.773164 -7.197976 15.248282 0.000000 0.000000 0.000000 0.000000 0.000000 0.000000 -143.520196 35.359949 144.507557 -44.215040 32.321135 -87.797420 5.310263 -44.831221 -48.055326 11.812819 2.044010 -18.996004 0.000000 0.000000 0.000000 0.000000 0.000000 0.000000 5.926175 5.563054 -24.138661 -7.717825 -3.823458 -0.935091 5.640106 -23.815398 5.852933 0.000000 0.000000 0.000000 -2.555916 6.297909 -24.244305 0.757415 -1.014330 0.149578 12.913597 32.634532 -40.668271 0.000000 0.000000 0.000000
23.869806 84.392376 364.967705 4.781153 -5.737805 24.564804 -0.014251 1.044225 -24.197951 -0.106827 0.326367 0.161721 -10.121714 -13.224702 -4.529229 0.000000 0.000000 0.000000 -139.470991 50.469699 71.763720 -69.118863 65.050491 -172.809801 -28.760375 -36.147901 18.372310 34.187030 -5.705828 21.082915 0.000000 0.000000 0.000000 0.000000 0.000000 0.000000 -143.698852 35.495817 145.348267 -45.586909 33.374961 -90.439419 15.336149 -39.382717 -34.188254 12.384410 -4.974352 -23.120274 0.000000 0.000000 0.000000 0.000000 0.000000 0.000000 6.184229 5.656202 -24.296160 -7.903162 -4.062535 -0.970906 7.105626 -28.148317 6.556568 0.000000 0.000000 0.000000 -2.403403 6.492304 -24.367296 0.893154 -1.172174 0.157142 12.788240 32.624666 -40.629149 0.000000 0.000000 0.000000
23.788855 84.395116 364.959313 4.376238 -4.611687 24.823466 0.107809 0.700267 -24.525783 -0.316915 0.467657 0.144231 -9.258125 -12.453500 -4.129624 0.000000 0.000000 0.000000 -138.270933 50.947563 70.314895 -68.256656 65.735002 -172.683036 -31.545326 -35.340417 14.710637 44.046746 -4.123495 28.350154 0.000000 0.000000 0.000000 0.000000 0.000000 0.000000 -143.012503 36.864593 145.233331 -46.306034 34.183670 -91.327384 21.091146 -36.677792 -27.757806 8.378008 -10.543257 -26.578223 0.000000 0.000000 0.000000 0.000000 0.000000 0.000000 6.266268 4.369400 -24.445774 -8.249350 -4.088845 -1.049869 7.350070 -28.360484 6.440701 0.000000 0.000000 0.000000 -2.051401 6.015393 -24.539369 0.878811 -2.003602 -0.029471 12.800042 32.948288 -41.027725 0.000000 0.000000 0.000000
23.718125 84.446493 364.928259 4.456417 -4.016025 24.638353 0.354789 0.407908 -24.352859 -0.576242 0.667756 0.143592 -7.342604 -10.721799 -3.356712 0.000000 0.000000 0.000000 -137.931971 51.014461 69.082324 -74.232784 63.851855 -162.950801 -41.731449 -32.691059 4.407423 50.159210 -1.992061 32.590553 0.000000 0.000000 0.000000 0.000000 0.000000 0.000000 -142.948233 37.982439 145.269164 -46.183742 34.741334 -90.255564 20.372859 -37.277926 -28.710625 6.280706 -10.960410 -26.726261 0.000000 0.000000 0.000000 0.000000 0.000000 0.000000 6.166042 3.885768 -24.209347 -8.676852 -4.057274 -1.130727 6.588090 -25.337589 6.168577 0.000000 0.000000 0.000000 -2.390499 5.500786 -24.367171 1.096046 -2.082114 0.016818 12.605242 33.120032 -41.179777 0.000000 0.000000 0.000000
23.648287 84.448332 364.934314 4.385293 -1.910256 24.366614 0.308043 -0.061824 -24.139511 -0.816715 0.791782 0.125600 -3.185494 -9.907912 -2.370587 0.000000 0.000000 0.000000 -137.023258 52.057429 67.593424 -66.188422 65.602749 -174.116766 -36.804104 -36.210254 9.102565 55.137683 0.473890 33.029861 0.000000 0.000000 0.000000 0.000000 0.000000 0.000000 -141.882959 39.818181 144.105190 -45.785290 34.852173 -88.669624 19.512710 -37.419176 -29.168749 5.126338 -11.806706 -26.897717 0.000000 0.000000 0.000000 0.000000 0.000000 0.000000 5.593157 1.941185 -23.733790 -9.120999 -3.796251 -1.210274 3.804604 -15.333386 5.086124 0.000000 0.000000 0.000000 -3.212928 3.544434 -24.194031 1.357049 -2.027962 0.089869 12.476831 33.541169 -41.804645 0.000000 0.000000 0.000000
